<?xml version="1.0" encoding="utf-8"?>
<!-- Generator: Adobe Illustrator 26.0.1, SVG Export Plug-In . SVG Version: 6.00 Build 0)  -->
<svg version="1.1" id="Ebene_1" xmlns="http://www.w3.org/2000/svg" xmlns:xlink="http://www.w3.org/1999/xlink" x="0px" y="0px"
	 viewBox="0 0 24 24" width="100%" height="100%" style="enable-background:new 0 0 24 24;" xml:space="preserve">
<style type="text/css">
	.st0{fill:#FFFFFF;}
</style>
<path class="st0" d="M12,0C5.4,0,0,5.4,0,12s5.4,12,12,12s12-5.4,12-12S18.6,0,12,0z M21.9,8h-4.8c-0.2-2.1-0.8-4.2-1.8-6.1
	C18.3,2.8,20.7,5.1,21.9,8z M16,12c0,0.9,0,1.8-0.1,2.7H8.1C8,13.9,8,13,8,12s0-1.8,0.1-2.7h7.8C16,10.2,16,11.1,16,12z M12,22.7
	c-0.5,0-1,0-1.5-0.1c-1.3-2-2-4.2-2.2-6.5h7.4c-0.2,2.3-1,4.6-2.2,6.5C13,22.6,12.5,22.7,12,22.7z M8.3,8c0.2-2.3,1-4.6,2.2-6.5
	c0.5-0.1,1-0.1,1.5-0.1s1,0,1.5,0.1c1.3,2,2,4.2,2.2,6.5H8.3z M8.7,1.9C7.8,3.8,7.2,5.9,6.9,8H2.1C3.3,5.1,5.7,2.8,8.7,1.9z
	 M1.7,9.3h5.1C6.7,10.2,6.7,11,6.7,12s0,1.8,0.1,2.7H1.7C1.2,12.9,1.2,11.1,1.7,9.3z M2.1,16h4.8c0.2,2.1,0.9,4.2,1.8,6.1
	C5.7,21.2,3.3,18.9,2.1,16z M15.3,22.1c0.9-1.9,1.5-4,1.8-6.1h4.8C20.7,18.9,18.3,21.2,15.3,22.1z M22.3,14.7h-5.1
	c0.1-0.9,0.1-1.7,0.1-2.7s0-1.8-0.1-2.7h5.1C22.8,11.1,22.8,12.9,22.3,14.7z"/>
</svg>
